ffmpeg version 4.1 Copyright (c) 2000-2018 the FFmpeg developers
  built with Apple LLVM version 10.0.0 (clang-1000.11.45.5)
  configuration: --prefix=/usr/local/Cellar/ffmpeg/4.1_1 --enable-shared --enable-pthreads --enable-version3 --enable-hardcoded-tables --enable-avresample --cc=clang --host-cflags= --host-ldflags= --enable-ffplay --enable-gpl --enable-libmp3lame --enable-libopus --enable-libsnappy --enable-libtheora --enable-libvorbis --enable-libvpx --enable-libx264 --enable-libx265 --enable-libxvid --enable-lzma --enable-opencl --enable-videotoolbox
  libavutil      56. 22.100 / 56. 22.100
  libavcodec     58. 35.100 / 58. 35.100
  libavformat    58. 20.100 / 58. 20.100
  libavdevice    58.  5.100 / 58.  5.100
  libavfilter     7. 40.101 /  7. 40.101
  libavresample   4.  0.  0 /  4.  0.  0
  libswscale      5.  3.100 /  5.  3.100
  libswresample   3.  3.100 /  3.  3.100
  libpostproc    55.  3.100 / 55.  3.100
Input #0, mpeg, from '2010_01_01_00:00:00_0003.mpg':
  Duration: 00:00:01.00, start: 0.533333, bitrate: 1130 kb/s
    Stream #0:0[0x1e0]: Video: mpeg1video, yuv420p(tv), 1280x720 [SAR 1:1 DAR 16:9], 104857 kb/s, 30 fps, 30 tbr, 90k tbn, 30 tbc
Stream mapping:
  Stream #0:0 -> #0:0 (mpeg1video (native) -> h264 (libx264))
Press [q] to stop, [?] for help
[libx264 @ 0x7fef8f003000] using SAR=1/1
[libx264 @ 0x7fef8f003000] using cpu capabilities: MMX2 SSE2Fast SSSE3 SSE4.2 AVX FMA3 BMI2 AVX2
[libx264 @ 0x7fef8f003000] profile High, level 3.1
[libx264 @ 0x7fef8f003000] 264 - core 155 r2917 0a84d98 - H.264/MPEG-4 AVC codec - Copyleft 2003-2018 - http://www.videolan.org/x264.html - options: cabac=1 ref=3 deblock=1:-1:-1 analyse=0x3:0x113 me=hex subme=7 psy=1 psy_rd=1.00:0.15 mixed_ref=1 me_range=16 chroma_me=1 trellis=1 8x8dct=1 cqm=0 deadzone=21,11 fast_pskip=1 chroma_qp_offset=-3 threads=6 lookahead_threads=1 sliced_threads=0 nr=0 decimate=1 interlaced=0 bluray_compat=0 constrained_intra=0 bframes=3 b_pyramid=2 b_adapt=1 b_bias=0 direct=1 weightb=1 open_gop=0 weightp=2 keyint=250 keyint_min=25 scenecut=40 intra_refresh=0 rc_lookahead=40 rc=crf mbtree=1 crf=23.0 qcomp=0.60 qpmin=0 qpmax=69 qpstep=4 ip_ratio=1.40 aq=1:1.00
Output #0, mp4, to '2010_01_01_00:00:00_0003.mp4':
  Metadata:
    encoder         : Lavf58.20.100
    Stream #0:0: Video: h264 (libx264) (avc1 / 0x31637661), yuv420p, 1280x720 [SAR 1:1 DAR 16:9], q=-1--1, 30 fps, 15360 tbn, 30 tbc
    Metadata:
      encoder         : Lavc58.35.100 libx264
    Side data:
      cpb: bitrate max/min/avg: 0/0/0 buffer size: 0 vbv_delay: -1
frame=   30 fps=0.0 q=-1.0 Lsize=      31kB time=00:00:00.90 bitrate= 283.5kbits/s speed=2.55x    
video:30kB audio:0kB subtitle:0kB other streams:0kB global headers:0kB muxing overhead: 3.953200%
[libx264 @ 0x7fef8f003000] frame I:1     Avg QP:13.79  size:  9282
[libx264 @ 0x7fef8f003000] frame P:8     Avg QP:20.27  size:  1576
[libx264 @ 0x7fef8f003000] frame B:21    Avg QP:17.45  size:   386
[libx264 @ 0x7fef8f003000] consecutive B-frames:  6.7%  0.0%  0.0% 93.3%
[libx264 @ 0x7fef8f003000] mb I  I16..4: 63.1% 34.4%  2.5%
[libx264 @ 0x7fef8f003000] mb P  I16..4:  6.3%  1.5%  0.1%  P16..4:  5.6%  0.6%  0.1%  0.0%  0.0%    skip:85.7%
[libx264 @ 0x7fef8f003000] mb B  I16..4:  1.0%  0.0%  0.0%  B16..8:  4.3%  0.1%  0.0%  direct: 0.8%  skip:93.8%  L0:58.9% L1:40.3% BI: 0.8%
[libx264 @ 0x7fef8f003000] 8x8 transform intra:25.5% inter:54.0%
[libx264 @ 0x7fef8f003000] coded y,uvDC,uvAC intra: 2.2% 15.6% 7.8% inter: 0.1% 2.3% 0.2%
[libx264 @ 0x7fef8f003000] i16 v,h,dc,p: 89% 10%  1%  1%
[libx264 @ 0x7fef8f003000] i8 v,h,dc,ddl,ddr,vr,hd,vl,hu: 34% 10% 54%  1%  0%  0%  0%  0%  0%
[libx264 @ 0x7fef8f003000] i4 v,h,dc,ddl,ddr,vr,hd,vl,hu: 30% 42% 22%  2%  0%  1%  0%  2%  0%
[libx264 @ 0x7fef8f003000] i8c dc,h,v,p: 44% 10% 42%  3%
[libx264 @ 0x7fef8f003000] Weighted P-Frames: Y:0.0% UV:0.0%
[libx264 @ 0x7fef8f003000] ref P L0: 69.4%  1.9% 23.4%  5.3%
[libx264 @ 0x7fef8f003000] ref B L0: 78.5% 20.0%  1.6%
[libx264 @ 0x7fef8f003000] ref B L1: 96.1%  3.9%
[libx264 @ 0x7fef8f003000] kb/s:239.94
